<svg xmlns="http://www.w3.org/2000/svg" width="22.839" height="17.905" viewBox="0 0 22.839 17.905">
  <g id="Group_349" data-name="Group 349" transform="translate(449.42 -52.048)">
    <path id="Path_492" data-name="Path 492" d="M-435.166,57.706c-.934.5-1.865.986-2.788,1.491a.388.388,0,0,0-.124.277,1.145,1.145,0,0,1-1.039,1.075,1.134,1.134,0,0,1-1.179-.85,1.123,1.123,0,0,1,.423-1.181,1.083,1.083,0,0,1,1.291-.023.308.308,0,0,0,.39.019q1.257-.683,2.523-1.348a.3.3,0,0,0,.189-.3,1.121,1.121,0,0,1,1.061-1.1,1.1,1.1,0,0,1,1.165.977.5.5,0,0,0,.31.439c.868.469,1.728.951,2.587,1.426a1.193,1.193,0,0,1,1.727.061l1.933-1.117c.121-.07.239-.145.364-.209a1.013,1.013,0,0,0,.628-.727,1.058,1.058,0,0,1,1.486-.659.311.311,0,0,0,.37-.065c.916-.725,1.832-1.45,2.757-2.165a.4.4,0,0,0,.167-.432,1.109,1.109,0,0,1,.894-1.232,1.131,1.131,0,0,1,1.313.852,1.086,1.086,0,0,1-.781,1.321,3.067,3.067,0,0,1-.791-.045.467.467,0,0,0-.278.033q-1.454,1.126-2.89,2.274a.329.329,0,0,0-.093.262,1.151,1.151,0,0,1-.552,1.2,1.1,1.1,0,0,1-1.286-.127.227.227,0,0,0-.318-.031c-.837.491-1.679.972-2.514,1.466a.387.387,0,0,0-.158.239,1.136,1.136,0,0,1-1.174,1.009,1.137,1.137,0,0,1-1.09-1.1.33.33,0,0,0-.141-.221q-1.3-.735-2.608-1.45c-.054-.03-.158-.05-.195-.02A1.158,1.158,0,0,1-435.166,57.706Zm5.655,1.28a.413.413,0,0,0-.405.409.407.407,0,0,0,.395.417.406.406,0,0,0,.417-.418A.412.412,0,0,0-429.511,58.986Zm-9.285.432a.4.4,0,0,0-.41-.4.41.41,0,0,0-.412.424.412.412,0,0,0,.425.388A.4.4,0,0,0-438.8,59.418ZM-419.4,53.17a.425.425,0,0,0-.41-.411.418.418,0,0,0-.414.428.429.429,0,0,0,.419.4A.427.427,0,0,0-419.4,53.17Zm-4.853,3.81a.423.423,0,0,0-.408-.407.411.411,0,0,0-.407.405.406.406,0,0,0,.419.417A.409.409,0,0,0-424.255,56.98Zm-9.7-.081a.4.4,0,0,0-.4-.409.4.4,0,0,0-.418.389.405.405,0,0,0,.386.423A.4.4,0,0,0-433.951,56.9Z" transform="translate(-8.49 0)" fill="#0c7cbf"/>
    <path id="Path_493" data-name="Path 493" d="M-155.083,134.552q0-2.951,0-5.9c0-.469.094-.562.564-.563q1.21,0,2.42,0c.356,0,.472.117.473.473q0,5.975,0,11.951c0,.364-.106.47-.47.471q-1.247,0-2.494,0c-.385,0-.492-.111-.492-.506Q-155.084,137.515-155.083,134.552Zm.743-5.73v11.44h1.991v-11.44Z" transform="translate(-274.954 -71.033)" fill="#0c7cbf"/>
    <path id="Path_494" data-name="Path 494" d="M-225.225,190.54q0,2.023,0,4.046c0,.378-.105.485-.48.486q-1.246,0-2.492,0c-.371,0-.484-.115-.484-.487q0-4.046,0-8.092c0-.388.112-.5.5-.5q1.234,0,2.467,0c.388,0,.491.108.491.5Q-225.224,188.517-225.225,190.54Zm-2.723-3.816v7.624h2v-7.624Z" transform="translate(-206.202 -125.121)" fill="#0c7cbf"/>
    <path id="Path_495" data-name="Path 495" d="M-375.817,189.331q0-2.048,0-4.1c0-.393.1-.49.5-.491q1.234,0,2.467,0c.376,0,.49.112.49.48q0,4.1,0,8.192c0,.375-.113.491-.48.492q-1.246,0-2.492,0c-.378,0-.484-.107-.484-.482Q-375.818,191.379-375.817,189.331Zm2.724-3.864h-2v7.718h2Z" transform="translate(-68.756 -123.957)" fill="#0c7cbf"/>
    <path id="Path_496" data-name="Path 496" d="M-449.419,226.418q0-1.419,0-2.839c0-.369.1-.473.465-.473q1.259,0,2.518,0c.357,0,.473.114.473.473q0,2.851,0,5.7c0,.342-.12.462-.46.463q-1.271,0-2.542,0c-.345,0-.452-.112-.453-.463Q-449.422,227.85-449.419,226.418Zm2.714,2.613v-5.2h-1.986v5.2Z" transform="translate(0 -159.793)" fill="#0c7cbf"/>
    <path id="Path_497" data-name="Path 497" d="M-302.252,225.915q0-1.42,0-2.839c0-.373.116-.493.481-.494q1.247,0,2.494,0c.366,0,.482.121.482.494q0,2.851,0,5.7c0,.359-.113.474-.469.475q-1.259,0-2.518,0c-.356,0-.468-.117-.469-.475Q-302.254,227.347-302.252,225.915Zm2.727,2.625v-5.225h-1.991v5.225Z" transform="translate(-137.476 -159.304)" fill="#0c7cbf"/>
  </g>
</svg>
