<svg xmlns="http://www.w3.org/2000/svg" width="22.308" height="22.31" viewBox="0 0 22.308 22.31">
  <g id="Group_469" data-name="Group 469" transform="translate(497.285 -53.624)">
    <path id="Path_511" data-name="Path 511" d="M-482.63,66.222c.973,0,1.96,0,2.948,0a1.762,1.762,0,0,1,1.5.769A1.724,1.724,0,0,1-477.86,68c0,.435,0,.869.008,1.3a.291.291,0,0,0,.134.212A4.637,4.637,0,0,1-475.055,73a5.818,5.818,0,0,1,.072.938c.011.524.005,1.049,0,1.573,0,.293-.133.421-.427.426h-21.308c-.477,0-.571-.087-.565-.558a20.581,20.581,0,0,1,.05-2.154,4.492,4.492,0,0,1,2.588-3.641.361.361,0,0,0,.244-.383,9.346,9.346,0,0,1,.034-1.479,1.744,1.744,0,0,1,1.757-1.494c1-.007,1.992,0,3.022,0-.04-.085-.073-.148-.1-.213-.211-.511-.417-1.024-.635-1.532a.824.824,0,0,0-.21-.3c-.367-.308-.743-.606-1.121-.9a1.309,1.309,0,0,1-.558-1.393,1.282,1.282,0,0,1,1.084-1.032.585.585,0,0,0,.08-.032c-.033-.073-.062-.146-.1-.215q-.391-.783-.785-1.565a1.71,1.71,0,0,1-.093-1.371.926.926,0,0,0-.633-1.275,7.376,7.376,0,0,1-.742-.254.5.5,0,0,1-.271-.306.459.459,0,0,1,.19-.359,10.811,10.811,0,0,1,4.954-1.732,42.835,42.835,0,0,1,4.759-.088,3.686,3.686,0,0,1,3.308,4.812c-.228.712-.5,1.408-.757,2.112-.025.07-.048.141-.079.231.077.019.145.038.214.054a1.272,1.272,0,0,1,1.008.948,1.242,1.242,0,0,1-.4,1.342c-.418.363-.862.7-1.291,1.048a.5.5,0,0,0-.146.188C-482.151,64.989-482.385,65.595-482.63,66.222ZM-493.686,75.2h15.108v-.237q0-3.4,0-6.809a1.09,1.09,0,0,0-1.207-1.211h-12.7a1.092,1.092,0,0,0-1.2,1.213q0,3.4,0,6.809Zm12.22-16.031c.107-.294.223-.584.318-.882A3,3,0,0,0-484,54.353c-1.1-.007-2.2-.016-3.3,0a11.263,11.263,0,0,0-4.944,1.238c-.054.027-.1.063-.168.1a1.679,1.679,0,0,1,1.053,2.29.838.838,0,0,0,0,.5c.189.46.421.9.64,1.362.826-.55,1.624-1.08,2.42-1.614a3.629,3.629,0,0,1,2.023-.649,3.1,3.1,0,0,0,2.005-.727c.254-.21.51-.418.771-.618a.349.349,0,0,1,.559.088A7.379,7.379,0,0,1-481.466,59.168Zm-1.429,2.387c0,.377.006.729,0,1.081a1.074,1.074,0,0,1-1.057,1.066q-.382.01-.764,0a1.077,1.077,0,0,1-1.054-1.07c0-.117,0-.235,0-.351h-.72c0,.113,0,.21,0,.307a1.079,1.079,0,0,1-1.123,1.116c-.2,0-.4,0-.607,0a1.083,1.083,0,0,1-1.148-1.158c0-.327,0-.654,0-.982h-.715a9.349,9.349,0,0,0,1.279,4.546.342.342,0,0,0,.257.108c1.611.006,3.221,0,4.832.009a.31.31,0,0,0,.311-.191,9.3,9.3,0,0,0,1.082-3.028c.08-.475.112-.959.168-1.453Zm-.451-4.51c-.112.089-.215.164-.31.248a3.962,3.962,0,0,1-2.707,1.024,2.47,2.47,0,0,0-1.358.414c-.76.493-1.511,1-2.262,1.505a.272.272,0,0,0-.1.175,3.7,3.7,0,0,0,0,.415h.266q1.45,0,2.9,0c.3,0,.425.131.431.422,0,.094,0,.188,0,.3h.719c0-.079,0-.123,0-.168,0-.465.09-.551.55-.551h3.024A4.467,4.467,0,0,0-483.346,57.045Zm-11.07,13.225c-.081.041-.142.066-.2.1a3.7,3.7,0,0,0-1.844,2.587,17.078,17.078,0,0,0-.1,2.215c0,.011.017.022.025.032h2.116Zm16.573-.011V75.2h2.185a18.6,18.6,0,0,0-.155-2.286A3.771,3.771,0,0,0-477.842,70.258Zm-10.806-8.7c0,.371-.006.721,0,1.071a.344.344,0,0,0,.356.356c.239.009.478.008.717,0a.326.326,0,0,0,.353-.308c.02-.37.006-.741.006-1.12Zm3.6,0c0,.369-.005.712,0,1.055a.344.344,0,0,0,.342.369c.253.011.508.011.762,0a.311.311,0,0,0,.32-.291c.019-.376.006-.755.006-1.132Zm-5.62,1.582-.153-1.582a.617.617,0,0,0-.649.352.584.584,0,0,0,.13.681C-491.14,62.772-490.919,62.936-490.671,63.137Zm9.082,0c.232-.186.433-.34.626-.5a.594.594,0,0,0,.178-.708.6.6,0,0,0-.655-.361Z" transform="translate(0)" fill="#f76377"/>
    <path id="Path_512" data-name="Path 512" d="M-333.793,350.63a1.442,1.442,0,0,1-1.449-1.434,1.44,1.44,0,0,1,1.439-1.443,1.441,1.441,0,0,1,1.438,1.422A1.441,1.441,0,0,1-333.793,350.63Zm.707-1.435a.722.722,0,0,0-.71-.722.72.72,0,0,0-.727.7.721.721,0,0,0,.72.733A.721.721,0,0,0-333.086,349.195Z" transform="translate(-152.328 -276.495)" fill="#f76377"/>
    <path id="Path_513" data-name="Path 513" d="M-375.791,283.578l.5.5-1.2,1.151,1.228,1.2-.58.555c-.125-.149-.249-.316-.392-.465-.312-.323-.635-.635-.95-.955a.353.353,0,0,1-.035-.553C-376.754,284.533-376.28,284.067-375.791,283.578Z" transform="translate(-112.757 -216.168)" fill="#f76377"/>
    <path id="Path_514" data-name="Path 514" d="M-279.3,284.221l.5-.53c.491.488.976.963,1.451,1.449a.316.316,0,0,1,0,.467c-.474.486-.959.962-1.448,1.45l-.482-.51,1.176-1.159Z" transform="translate(-204.919 -216.274)" fill="#f76377"/>
    <path id="Path_515" data-name="Path 515" d="M-333.456,287.456l-.576-.43,2.158-2.876.574.432Z" transform="translate(-153.465 -216.704)" fill="#f76377"/>
  </g>
</svg>
