<svg id="Group_433" data-name="Group 433" xmlns="http://www.w3.org/2000/svg" width="15.944" height="16.797" viewBox="0 0 15.944 16.797">
  <path id="notifications" d="M730.162,1825.2v1.987a5.239,5.239,0,0,0-4.192,5.347v2.673a3.979,3.979,0,0,1-1.633,3.542l-1.287,1.078h5.39a2.371,2.371,0,0,0,4.725,0h5.39l-1.287-1.078a3.98,3.98,0,0,1-1.633-3.542v-2.673a5.239,5.239,0,0,0-4.193-5.347V1825.2Zm.64,15.568a1.137,1.137,0,0,1-1.078-.942h2.157A1.137,1.137,0,0,1,730.8,1840.772Zm3.552-8.235v2.673a5.108,5.108,0,0,0,1.014,3.392h-9.133a5.108,5.108,0,0,0,1.015-3.392v-2.673c0-2.3,1.593-4.171,3.552-4.171S734.355,1830.237,734.355,1832.537Z" transform="translate(-722.611 -1825.204)" fill="#1e1e1c"/>
  <circle id="Ellipse_10" data-name="Ellipse 10" cx="3.5" cy="3.5" r="3.5" transform="translate(0 1.831)" fill="#0c7cbf"/>
</svg>
