<svg xmlns="http://www.w3.org/2000/svg" width="22.934" height="19" viewBox="0 0 22.934 19">
  <g id="Group_468" data-name="Group 468" transform="translate(611.2 -27.672)">
    <path id="Path_507" data-name="Path 507" d="M-611.2,180.988a7.108,7.108,0,0,1,.322-1.04,3.2,3.2,0,0,1,2.844-1.935,22.278,22.278,0,0,1,2.816.031.719.719,0,0,0,.785-.359,3.106,3.106,0,0,1,2.617-1.4c1.417-.02,2.836-.034,4.252.009a3.127,3.127,0,0,1,2.651,1.579c.121.194.23.251.44.183a1.232,1.232,0,0,1,.376-.048c.969,0,1.944-.053,2.906.033a3.27,3.27,0,0,1,2.9,3.115c.035,1.267.031,2.537.005,3.8a1.989,1.989,0,0,1-1.984,1.984c-.06,0-.119,0-.179,0q-9.289,0-18.577,0a2.094,2.094,0,0,1-1.774-.821,2.4,2.4,0,0,1-.4-.981Zm7.468,4.606h7.975c0-.048.011-.084.011-.12,0-1.946.014-3.892-.005-5.838a1.981,1.981,0,0,0-2.083-2.014c-1.267-.008-2.535-.015-3.8.007a2.363,2.363,0,0,0-.948.2,1.952,1.952,0,0,0-1.147,1.912q0,2.807,0,5.614Zm-1.354.014v-6.214c-.194-.02-.377-.054-.561-.055q-1.062-.01-2.125,0a2.191,2.191,0,0,0-.552.069,2,2,0,0,0-1.532,2.024c0,1.126,0,2.251,0,3.377,0,.545.247.8.787.8q1.353,0,2.706,0Zm10.683-.028a.444.444,0,0,0,.089.025c1.349,0,2.7.005,4.048,0a.644.644,0,0,0,.643-.689c0-1.185.009-2.371,0-3.556a1.977,1.977,0,0,0-1.823-1.992c-.617-.037-1.236-.026-1.854-.027-.3,0-.61.025-.915.034-.155,0-.191.077-.19.226q.008,2.863,0,5.725C-594.4,185.411-594.4,185.5-594.4,185.58Z" transform="translate(0 -140.282)" fill="#7764e4"/>
    <path id="Path_508" data-name="Path 508" d="M-473.615,27.672a3.988,3.988,0,0,1,3.987,3.978,4,4,0,0,1-3.981,3.991,4,4,0,0,1-3.987-3.985A3.987,3.987,0,0,1-473.615,27.672Zm0,1.343a2.639,2.639,0,0,0-2.639,2.646,2.653,2.653,0,0,0,2.632,2.638,2.653,2.653,0,0,0,2.65-2.642A2.639,2.639,0,0,0-473.614,29.015Z" transform="translate(-126.128 0)" fill="#7764e4"/>
    <path id="Path_509" data-name="Path 509" d="M-584.478,96.84a2.989,2.989,0,0,1,2.974-2.979,3,3,0,0,1,3,2.982,3,3,0,0,1-3,2.983A3,3,0,0,1-584.478,96.84Zm2.985-1.634a1.645,1.645,0,0,0-1.639,1.634,1.656,1.656,0,0,0,1.637,1.641,1.663,1.663,0,0,0,1.642-1.639A1.65,1.65,0,0,0-581.493,95.206Z" transform="translate(-25.227 -62.485)" fill="#7764e4"/>
    <path id="Path_510" data-name="Path 510" d="M-329.049,96.872a3,3,0,0,1-3.024,2.954,3,3,0,0,1-2.945-3.014,2.992,2.992,0,0,1,3.027-2.95A2.989,2.989,0,0,1-329.049,96.872Zm-2.98-1.665a1.65,1.65,0,0,0-1.645,1.631,1.662,1.662,0,0,0,1.637,1.644,1.656,1.656,0,0,0,1.642-1.637A1.645,1.645,0,0,0-332.029,95.207Z" transform="translate(-260.726 -62.486)" fill="#7764e4"/>
  </g>
</svg>
