<svg xmlns="http://www.w3.org/2000/svg" width="20.47" height="20.47" viewBox="0 0 20.47 20.47">
  <path id="material-catalog-svgrepo-com" d="M28.282,17.535H17.535V28.282h3.646a8.267,8.267,0,0,0-.048,1.535h-3.6A1.535,1.535,0,0,1,16,28.282V17.535A1.535,1.535,0,0,1,17.535,16H28.282a1.535,1.535,0,0,1,1.535,1.535v3.6a8.313,8.313,0,0,0-1.535.048Zm-3.525,11.77a4.565,4.565,0,0,1,.116-1.024h3.41v-3.41a4.6,4.6,0,0,1,1.535-.087v3.5a1.535,1.535,0,0,1-1.535,1.535h-3.5a4.6,4.6,0,0,1-.029-.512Zm10.121,0a5.572,5.572,0,1,1-5.572-5.572A5.573,5.573,0,0,1,34.878,29.306Zm1.592,0a7.165,7.165,0,1,1-7.165-7.165A7.165,7.165,0,0,1,36.47,29.306Z" transform="translate(-16 -16)" fill="#fdc031" fill-rule="evenodd"/>
</svg>
