<svg xmlns="http://www.w3.org/2000/svg" width="21.136" height="21.47" viewBox="0 0 21.136 21.47">
  <g id="Group_471" data-name="Group 471" transform="translate(412.682 -44.706)">
    <path id="Path_519" data-name="Path 519" d="M-411.667,213.521h15.244c.461,0,.7.172.706.5s-.248.513-.7.513H-412.67c0-.515-.031-1,.005-1.488a9.794,9.794,0,0,1,2.18-5.586,12.467,12.467,0,0,1,4.406-3.323,1.71,1.71,0,0,1,1.606-.046,6.153,6.153,0,0,0,5.511-.213.5.5,0,0,1,.467-.028,10.212,10.212,0,0,1,2.52,1.325.519.519,0,0,1,.243.542.437.437,0,0,1-.384.385.76.76,0,0,1-.465-.125,7.841,7.841,0,0,0-1.912-1.02.517.517,0,0,0-.349,0,7.524,7.524,0,0,1-6.232.006.4.4,0,0,0-.281-.032,10.79,10.79,0,0,0-4.846,3.843,8.9,8.9,0,0,0-1.467,4.513C-411.67,213.359-411.667,213.425-411.667,213.521Z" transform="translate(0 -148.358)" fill="#0c7cbf"/>
    <path id="Path_520" data-name="Path 520" d="M-329.291,49.761a5.066,5.066,0,0,1,5.084-5.055,5.066,5.066,0,0,1,5.049,5.09,5.068,5.068,0,0,1-5.071,5.043A5.067,5.067,0,0,1-329.291,49.761Zm1.013.018a4.053,4.053,0,0,0,4.061,4.048,4.054,4.054,0,0,0,4.047-4.062,4.051,4.051,0,0,0-4.061-4.047A4.051,4.051,0,0,0-328.278,49.779Z" transform="translate(-77.761)" fill="#0c7cbf"/>
    <path id="Path_521" data-name="Path 521" d="M-203.572,257.413c-.635,0-1.233.006-1.831-.007a.43.43,0,0,1-.248-.144c-.712-.719-1.424-1.439-2.124-2.171a.537.537,0,0,0-.522-.186,2.436,2.436,0,0,1-2.712-1.8,2.5,2.5,0,0,1,1.465-2.947,2.506,2.506,0,0,1,3.423,2.612.445.445,0,0,0,.122.318c.721.735,1.445,1.466,2.184,2.183a.742.742,0,0,1,.249.617C-203.585,256.386-203.572,256.884-203.572,257.413Zm-1.036-1.032a.629.629,0,0,0-.2-.675c-.693-.666-1.351-1.367-2.05-2.027a.83.83,0,0,1-.305-.963,1.424,1.424,0,0,0-1.157-1.7,1.485,1.485,0,0,0-1.729,1.181,1.419,1.419,0,0,0,1.191,1.7,3.355,3.355,0,0,0,.966-.109.331.331,0,0,1,.35.1c.738.764,1.494,1.511,2.221,2.284A.7.7,0,0,0-204.607,256.381Z" transform="translate(-187.982 -191.408)" fill="#0c7cbf"/>
    <path id="Path_522" data-name="Path 522" d="M-180.054,280.616a.463.463,0,0,1-.467.46.452.452,0,0,1-.459-.464.449.449,0,0,1,.463-.459A.461.461,0,0,1-180.054,280.616Z" transform="translate(-216.058 -219.55)" fill="#0c7cbf"/>
  </g>
</svg>
