<svg id="Layer_2" data-name="Layer 2" xmlns="http://www.w3.org/2000/svg" width="21.068" height="21.068" viewBox="0 0 21.068 21.068">
  <g id="layer_1" data-name="layer 1">
    <path id="Path_525" data-name="Path 525" d="M19.607,21.068H6.439A.439.439,0,0,1,6,20.629v-7.9h.878v7.462H19.427l4.13-4.13V.878H6.878V3.072H6V.439A.439.439,0,0,1,6.439,0H24a.439.439,0,0,1,.439.439v15.8a.439.439,0,0,1-.127.312l-4.389,4.389A.439.439,0,0,1,19.607,21.068Z" transform="translate(-3.366 0)" fill="#f76377"/>
    <path id="Path_526" data-name="Path 526" d="M10.1,16.534H.439A.439.439,0,0,1,0,16.1V6.439A.439.439,0,0,1,.439,6H10.1a.439.439,0,0,1,.439.439V16.1A.439.439,0,0,1,10.1,16.534ZM.878,15.656H9.656V6.878H.878Z" transform="translate(0 -3.366)" fill="#f76377"/>
    <path id="Path_527" data-name="Path 527" d="M9.749,14.943a2.012,2.012,0,0,1-1.756-2.195,1.628,1.628,0,0,1,1.756-1.756A1.628,1.628,0,0,1,11.5,12.749,2.012,2.012,0,0,1,9.749,14.943Zm0-3.072c-.786,0-.878.5-.878.878,0,.7.408,1.317.878,1.317s.878-.614.878-1.317C10.627,12.371,10.534,11.871,9.749,11.871Z" transform="translate(-4.482 -6.165)" fill="#f76377"/>
    <path id="Path_528" data-name="Path 528" d="M11.145,15.462h-.878V14.009A.439.439,0,0,0,9.9,13.57l-1.826-.3-1.826.307a.439.439,0,0,0-.369.439v1.448H5V14.009a1.317,1.317,0,0,1,1.1-1.317l1.9-.3a.75.75,0,0,1,.14,0l1.9.32a1.317,1.317,0,0,1,1.1,1.317Zm7.9,10.1a.369.369,0,0,1-.167-.035.439.439,0,0,1-.272-.4V20.729a.439.439,0,0,1,.439-.439h4.389a.442.442,0,0,1,.312.751L19.357,25.43A.439.439,0,0,1,19.045,25.557Zm.439-4.389V24.06l2.893-2.893ZM17.729,8H21.24v.878H17.729ZM15.1,8h1.756v.878H15.1Zm0,2.195h4.828v.878H15.1Zm3.511,2.195H21.24v.878H18.606Zm-3.511,0h2.634v.878H15.1Zm0,2.195H21.24v.878H15.1Zm0,2.195h3.95v.878H15.1Zm-1.317,2.195H17.29v.878H13.778Zm-5.706,0H12.9v.878H8.072Zm3.95,2.195h3.511v.878H12.023Zm-3.95,0h3.072v.878H8.072Z" transform="translate(-2.805 -4.489)" fill="#f76377"/>
  </g>
</svg>
