<svg xmlns="http://www.w3.org/2000/svg" width="22.341" height="22.342" viewBox="0 0 22.341 22.342">
  <g id="Group_470" data-name="Group 470" transform="translate(587.25 -27.5)">
    <path id="Path_516" data-name="Path 516" d="M-564.909,40.242a1.623,1.623,0,0,1-.374.227c-.643.181-1.29.346-1.938.506a.332.332,0,0,0-.261.241c-.221.575-.454,1.145-.7,1.708a.365.365,0,0,0,0,.395c.349.57.683,1.149,1.022,1.725.156.266.146.358-.07.574q-.947.95-1.9,1.9c-.224.224-.311.232-.592.066-.582-.343-1.167-.682-1.745-1.031a.3.3,0,0,0-.317-.01q-.877.381-1.767.732a.317.317,0,0,0-.226.248c-.164.662-.339,1.322-.512,1.982-.07.269-.156.337-.426.337q-1.363,0-2.727,0c-.284,0-.364-.063-.438-.349-.172-.66-.347-1.32-.511-1.983a.317.317,0,0,0-.234-.242c-.581-.226-1.158-.46-1.728-.713a.35.35,0,0,0-.375.013c-.578.35-1.161.691-1.744,1.032-.252.147-.344.132-.556-.077-.135-.133-.272-.263-.4-.4a.322.322,0,0,1-.01-.483.322.322,0,0,1,.468.023,3.6,3.6,0,0,1,.262.317c.663-.39,1.278-.745,1.886-1.114a.473.473,0,0,1,.545-.013,7.728,7.728,0,0,0,2.086.863.459.459,0,0,1,.367.378c.169.691.353,1.378.535,2.081h2.41c.164-.633.348-1.266.488-1.909a.738.738,0,0,1,.576-.605,17.184,17.184,0,0,0,1.862-.779.608.608,0,0,1,.662.015c.586.363,1.185.7,1.762,1.044l1.705-1.709c-.017-.032-.048-.1-.083-.156-.335-.57-.669-1.141-1.009-1.708a.416.416,0,0,1-.006-.469,8,8,0,0,0,.89-2.145.43.43,0,0,1,.354-.336c.7-.174,1.392-.356,2.1-.538V37.466c-.689-.179-1.374-.365-2.064-.531a.486.486,0,0,1-.4-.4,7.511,7.511,0,0,0-.846-2.046.487.487,0,0,1,0-.564c.367-.6.718-1.212,1.062-1.8l-1.718-1.72c-.458.27-.978.533-1.449.866a1,1,0,0,1-1.24.039,9.934,9.934,0,0,0-1.693-.673.552.552,0,0,1-.426-.429c-.161-.684-.349-1.362-.528-2.051h-2.406c-.12.461-.243.929-.364,1.4-.062.239-.125.478-.182.718a.413.413,0,0,1-.327.336,8.021,8.021,0,0,0-2.145.89.431.431,0,0,1-.488-.012c-.616-.37-1.238-.732-1.839-1.086l-1.714,1.718c.336.57.681,1.175,1.047,1.766a.546.546,0,0,1,0,.642,7.149,7.149,0,0,0-.82,1.986.514.514,0,0,1-.432.421c-.678.161-1.35.346-2.039.526v2.406c.681.178,1.365.365,2.054.531a.5.5,0,0,1,.415.411,7.254,7.254,0,0,0,.829,2.006.532.532,0,0,1-.009.623c-.364.593-.711,1.2-1.1,1.85.124.1.26.2.376.322A.317.317,0,0,1-584,46.1a.334.334,0,0,1-.485-.034c-.163-.156-.317-.321-.48-.476a.365.365,0,0,1-.061-.508c.351-.586.692-1.178,1.046-1.762a.35.35,0,0,0,.014-.375c-.253-.569-.488-1.147-.714-1.728a.33.33,0,0,0-.26-.242c-.649-.158-1.3-.324-1.939-.5a1.62,1.62,0,0,1-.374-.227V37.1a1.61,1.61,0,0,1,.374-.227c.649-.182,1.3-.348,1.958-.51a.3.3,0,0,0,.234-.214q.355-.9.739-1.786a.282.282,0,0,0-.01-.3c-.355-.591-.7-1.186-1.053-1.781-.148-.252-.135-.346.074-.555q.955-.957,1.912-1.912c.209-.209.3-.222.555-.074.589.344,1.179.688,1.763,1.041a.315.315,0,0,0,.336.013c.584-.255,1.174-.5,1.766-.729a.3.3,0,0,0,.214-.235c.163-.655.329-1.309.511-1.959a1.613,1.613,0,0,1,.227-.374h3.142a1.617,1.617,0,0,1,.227.374c.182.65.348,1.3.511,1.958a.3.3,0,0,0,.214.233q.9.354,1.786.739a.282.282,0,0,0,.3-.009c.584-.352,1.174-.7,1.762-1.042.275-.162.362-.151.59.077q.941.939,1.881,1.881c.228.228.239.317.078.591-.342.582-.682,1.166-1.031,1.743a.314.314,0,0,0-.011.336q.38.865.722,1.746a.333.333,0,0,0,.263.239c.648.16,1.295.325,1.937.506a1.618,1.618,0,0,1,.374.227Z" fill="#1e1e1c"/>
    <path id="Path_517" data-name="Path 517" d="M-492.395,129.617a1.362,1.362,0,0,1,1.065-1.2c.389-.115.769-.261,1.178-.4a4.552,4.552,0,0,1-.25-2.2c-.016-.523-.018-1.048.013-1.57a1.465,1.465,0,0,1,1.372-1.367,12.066,12.066,0,0,1,1.373,0,1.443,1.443,0,0,1,1.362,1.351c.032,1.009.019,2.021,0,3.031a3.545,3.545,0,0,1-.194.769l1.089.374a1.388,1.388,0,0,1,1.136,1.231,4.592,4.592,0,0,0,.763-1.469c.093-.3.147-.621.216-.932a.323.323,0,0,1,.383-.294.332.332,0,0,1,.261.41,5.832,5.832,0,0,1-5.05,4.955,5.808,5.808,0,0,1-6.194-4.221,5.743,5.743,0,0,1,4.663-7.17,5.8,5.8,0,0,1,6.539,4.654,1.558,1.558,0,0,1,.03.238.3.3,0,0,1-.268.342.3.3,0,0,1-.362-.238c-.051-.2-.079-.4-.129-.6a5.122,5.122,0,0,0-5.11-3.815,5.1,5.1,0,0,0-4.844,4.273,5.006,5.006,0,0,0,.792,3.658c.036.055.075.107.115.159C-492.442,129.593-492.427,129.6-492.395,129.617Zm3.962,2.039a5.187,5.187,0,0,0,2.937-.843c.583-.383.582-.384.566-1.079a.633.633,0,0,0-.457-.643c-.485-.171-.973-.338-1.463-.5a.322.322,0,0,0-.234.027,2.316,2.316,0,0,1-2.5,0,.325.325,0,0,0-.233-.03c-.36.112-.716.237-1.072.359-.833.285-.845.31-.855,1.191a.452.452,0,0,0,.2.4A5.061,5.061,0,0,0-488.432,131.656Zm-1.318-5.865c0,.147,0,.256,0,.364,0,.261,0,.523,0,.784a1.331,1.331,0,0,0,1.574,1.371,1.245,1.245,0,0,0,1.227-1.011c.047-.487.01-.982.01-1.5a1.153,1.153,0,0,1-1.317-.6A1.568,1.568,0,0,1-489.751,125.79Zm2.823-.647c0-.314.019-.6,0-.878a.8.8,0,0,0-.759-.74c-.427-.021-.857-.019-1.284,0a.778.778,0,0,0-.733.613,8.183,8.183,0,0,0-.054.983.926.926,0,0,0,.99-.325,3.17,3.17,0,0,1,.33-.347.321.321,0,0,1,.534.058c.1.152.172.321.277.467a.414.414,0,0,0,.232.162A2.764,2.764,0,0,0-486.928,125.143Z" transform="translate(-87.746 -87.915)" fill="#1e1e1c"/>
    <path id="Path_518" data-name="Path 518" d="M-518.274,104.956a7.2,7.2,0,0,1,6.229-7.06c.036,0,.072-.007.109-.01.26-.018.413.085.429.288s-.117.334-.373.365a6.441,6.441,0,0,0-5.64,5.5,6.486,6.486,0,0,0,5.346,7.288,6.469,6.469,0,0,0,7.461-5.472,6.455,6.455,0,0,0-5.629-7.319c-.291-.034-.449-.218-.37-.44.072-.2.234-.237.425-.214a6.376,6.376,0,0,1,2.457.777,7.036,7.036,0,0,1,3.816,6.666,7.116,7.116,0,0,1-5.485,6.562,7.105,7.105,0,0,1-8.568-5.427C-518.179,105.971-518.207,105.459-518.274,104.956Z" transform="translate(-64.963 -66.286)" fill="#1e1e1c"/>
  </g>
</svg>
