<svg xmlns="http://www.w3.org/2000/svg" width="48.6" height="39" viewBox="0 0 48.6 39">
  <path id="Path_505" data-name="Path 505" d="M79-132.4l3-1.7a3.84,3.84,0,0,1,4,.1,14.5,14.5,0,0,0,8,2.4,14.5,14.5,0,0,0,8-2.4,3.834,3.834,0,0,1,4-.1l3,1.7a8.983,8.983,0,0,1,4.2,6,23.9,23.9,0,0,0,5.1-14.8,24.22,24.22,0,0,0-24.2-24.2,24.327,24.327,0,0,0-24.4,24.2,23.9,23.9,0,0,0,5.1,14.8A8.385,8.385,0,0,1,79-132.4Zm14.9-24.1a10.243,10.243,0,0,1,10.2,10.2,10.243,10.243,0,0,1-10.2,10.2,10.243,10.243,0,0,1-10.2-10.2A10.243,10.243,0,0,1,93.9-156.5Z" transform="translate(-69.7 165.4)" fill="#0c7cbf"/>
</svg>
